<?xml version="1.0" standalone="no"?>
<!DOCTYPE svg PUBLIC "-//W3C//DTD SVG 20010904//EN"
 "http://www.w3.org/TR/2001/REC-SVG-20010904/DTD/svg10.dtd">
<svg version="1.0" xmlns="http://www.w3.org/2000/svg"
 width="200.000000pt" height="200.000000pt" viewBox="0 0 200.000000 200.000000"
 preserveAspectRatio="xMidYMid meet">

<g transform="translate(0.000000,200.000000) scale(0.100000,-0.100000)"
fill="#000000" stroke="none">
<path d="M730 1200 c0 -59 -1 -60 -21 -49 -29 15 -78 4 -109 -26 -23 -22 -25
-30 -24 -104 2 -90 4 -95 44 -116 22 -11 47 -13 104 -8 l76 6 0 178 0 179 -35
0 -35 0 0 -60z m-5 -175 l0 -70 -33 -3 c-46 -5 -72 20 -72 70 0 50 29 80 73
76 l32 -3 0 -70z"/>
<path d="M849 1244 c-17 -21 0 -48 34 -52 18 -2 27 2 32 18 13 41 -38 68 -66
34z"/>
<path d="M1244 1195 c-3 -14 -19 -36 -35 -49 -31 -26 -38 -56 -14 -56 12 0 15
-15 15 -71 0 -96 18 -129 72 -129 41 0 58 10 58 35 0 19 -6 24 -32 27 l-33 3
-3 67 -3 67 33 3 c28 2 34 7 36 31 3 25 1 27 -32 27 -34 0 -36 2 -36 35 0 40
-17 47 -26 10z"/>
<path d="M220 1142 c-120 -60 -98 -227 33 -249 40 -6 107 13 107 30 0 7 -7 21
-15 31 -12 16 -18 17 -27 8 -18 -18 -73 -15 -90 6 -26 29 -30 59 -13 91 18 36
55 49 92 32 21 -10 28 -9 39 6 20 27 17 33 -21 49 -45 18 -62 18 -105 -4z"/>
<path d="M850 1030 l0 -130 30 0 30 0 0 130 0 130 -30 0 -30 0 0 -130z"/>
<path d="M1010 1142 c-74 -37 -58 -110 31 -143 24 -9 45 -24 47 -32 5 -24 -35
-31 -65 -12 -24 16 -26 16 -46 -3 l-20 -21 34 -20 c83 -51 190 3 159 80 -11
26 -78 69 -108 69 -7 0 -12 9 -12 20 0 23 37 28 72 9 16 -8 24 -8 35 4 19 19
9 35 -33 53 -43 18 -52 18 -94 -4z"/>
<path d="M1424 1149 c-47 -14 -58 -32 -34 -54 16 -14 23 -16 32 -7 17 17 64
15 82 -4 26 -25 19 -31 -41 -36 -46 -4 -61 -10 -81 -33 -18 -22 -22 -35 -18
-59 9 -48 41 -69 96 -62 25 3 62 5 83 5 l37 0 0 95 c0 90 -2 97 -27 125 -31
34 -80 45 -129 30z m96 -164 c0 -29 -39 -50 -71 -40 -26 9 -24 44 4 55 44 17
67 12 67 -15z"/>
<path d="M1725 1151 c-11 -5 -37 -6 -57 -3 l-38 5 0 -127 0 -126 30 0 30 0 0
88 c0 96 7 112 51 112 44 0 59 -32 59 -122 l0 -78 30 0 30 0 0 90 c0 106 -14
142 -61 159 -36 13 -46 13 -74 2z"/>
</g>
</svg>
